<?xml version="1.0" encoding="UTF-8" standalone="no"?>
<svg
   xmlns:dc="http://purl.org/dc/elements/1.1/"
   xmlns:cc="http://creativecommons.org/ns#"
   xmlns:rdf="http://www.w3.org/1999/02/22-rdf-syntax-ns#"
   xmlns:svg="http://www.w3.org/2000/svg"
   xmlns="http://www.w3.org/2000/svg"
   xmlns:sodipodi="http://sodipodi.sourceforge.net/DTD/sodipodi-0.dtd"
   xmlns:inkscape="http://www.inkscape.org/namespaces/inkscape"
   viewBox="0 0 258.5 258.5"
   id="svg3336"
   version="1.1"
   inkscape:version="0.91 r13725"
   sodipodi:docname="hargo-logo.svg">
  <metadata
     id="metadata3382">
    <rdf:RDF>
      <cc:Work
         rdf:about="">
        <dc:format>image/svg+xml</dc:format>
        <dc:type
           rdf:resource="http://purl.org/dc/dcmitype/StillImage" />
        <dc:title></dc:title>
      </cc:Work>
    </rdf:RDF>
  </metadata>
  <defs
     id="defs3380" />
  <sodipodi:namedview
     pagecolor="#ffffff"
     bordercolor="#666666"
     borderopacity="1"
     objecttolerance="10"
     gridtolerance="10"
     guidetolerance="10"
     inkscape:pageopacity="0"
     inkscape:pageshadow="2"
     inkscape:window-width="1920"
     inkscape:window-height="1027"
     id="namedview3378"
     showgrid="false"
     inkscape:zoom="3.3268859"
     inkscape:cx="123.98983"
     inkscape:cy="129.25"
     inkscape:window-x="1912"
     inkscape:window-y="-8"
     inkscape:window-maximized="1"
     inkscape:current-layer="layer3" />
  <g
     inkscape:groupmode="layer"
     id="layer1"
     inkscape:label="Layer 1">
    <g
       id="g3407"
       transform="matrix(0.4084717,0,0,0.4084717,96.202622,56.810527)">
      <path
         id="path3409"
         d="m 207.3,44.6 c -6.7,-13.7 -22.9,-1.6 -27,-5.9 -21,-21.6 -46.4,-27 -66.3,-28 0,0 -9,0 -11,0 -20,0.5 -45.4,6.3 -66.3,28 -4.1,4.3 -20.4,-7.8 -27,5.9 -7.7,16 15.7,17.6 14.5,24.7 -2.3,12.8 -0.8,31.8 1,50.5 2.8,31.7 -20.9,107.6 28.4,138.1 9.3,5.8 34.4,9 56.2,9.5 l 0,0 c 0,0 0.1,0 0.1,0 0,0 0.1,0 0.1,0 l 0,0 c 21.8,-0.5 43.9,-3.7 53.2,-9.5 49.4,-30.5 25.7,-106.4 28.6,-138.1 1.7,-18.7 3.2,-37.7 1,-50.5 -1.2,-7.1 22.2,-8.8 14.5,-24.7 z"
         inkscape:connector-curvature="0"
         style="fill:#8cc5e7" />
      <g
         id="g3411">
        <path
           id="path3413"
           d="m 143.2,54.3 c -33.4,3.9 -28.9,38.7 -16,50 24,21 49,0 46.2,-21.2 -2.5,-20.4 -19.8,-30 -30.2,-28.8 z"
           inkscape:connector-curvature="0"
           style="fill:#e0dedc" />
        <circle
           id="circle3415"
           r="11.4"
           cy="84.300003"
           cx="145.5"
           style="fill:#111212" />
        <circle
           id="circle3417"
           r="3.5999999"
           cy="79.400002"
           cx="142.5"
           style="fill:#ffffff" />
      </g>
      <g
         id="g3419">
        <path
           id="path3421"
           d="m 108.5,107 c -16,2.4 -21.7,7 -20.5,14.2 2,11.8 39.7,10.5 40.9,0.6 1,-8.5 -14.1,-15.7 -20.4,-14.8 z"
           inkscape:connector-curvature="0"
           style="fill:#b8937f" />
        <path
           id="path3423"
           d="m 98.2,111.8 c -2.7,9.8 21.7,8.3 21.1,2 -0.3,-3.7 -3.6,-8.4 -12.3,-8.2 -3.4,0.1 -7.6,1.6 -8.8,6.2 z"
           inkscape:connector-curvature="0" />
        <path
           id="path3425"
           d="m 99,127.7 c -0.9,0.4 -2.4,10.2 2.2,10.7 3.1,0.3 11.6,1.3 13.6,0 3.9,-2.5 3.5,-8.5 1.3,-10 C 112.4,126 100,127.2 99,127.7 Z"
           inkscape:connector-curvature="0"
           style="fill:#e0dedc" />
      </g>
      <g
         id="g3427">
        <path
           id="path3429"
           d="m 73.6,54.3 c 33.4,3.9 28.9,38.7 16,50 -24,21 -49,0 -46.2,-21.2 2.6,-20.4 19.9,-30 30.2,-28.8 z"
           inkscape:connector-curvature="0"
           style="fill:#e0dedc" />
        <circle
           id="circle3431"
           r="11.4"
           cy="84.300003"
           cx="71.400002"
           style="fill:#111212" />
        <circle
           id="circle3433"
           r="3.5999999"
           cy="79.400002"
           cx="74.400002"
           style="fill:#ffffff" />
      </g>
      <path
         id="path3435"
         d="m 193.6,186.7 c 11,0.1 5.6,-23.5 -1.2,-18.8 -3.3,2.3 -3.9,7.6 -3.9,12.1 0,2.5 2,6.6 5.1,6.7 z"
         inkscape:connector-curvature="0"
         style="fill:#b8937f" />
      <path
         id="path3437"
         d="m 23.3,186.7 c -11,0.1 -5.6,-23.5 1.2,-18.8 3.3,2.3 3.9,7.6 3.9,12.1 0,2.5 -2,6.6 -5.1,6.7 z"
         inkscape:connector-curvature="0"
         style="fill:#b8937f" />
      <path
         id="path3439"
         d="m 172.7,259.2 c -6,-8.9 -11.4,-2 -20.1,2.4 -4.1,2.1 6.8,9.6 19,4 3.2,-1.5 3.1,-3.5 1.1,-6.4 z"
         inkscape:connector-curvature="0"
         style="fill:#b8937f" />
      <path
         id="path3441"
         d="m 44.2,260.2 c 6,-8.9 11.4,-2 20.1,2.4 4.1,2.1 -6.8,9.6 -19,4 -3.2,-1.5 -3.1,-3.5 -1.1,-6.4 z"
         inkscape:connector-curvature="0"
         style="fill:#b8937f" />
      <path
         id="path3443"
         d="m 188.6,47 c -0.6,2.1 2.1,1.8 3.1,8.3 0.4,2.4 9,-3.5 5.5,-7.8 -2.9,-3.6 -8.1,-2.6 -8.6,-0.5 z"
         inkscape:connector-curvature="0"
         style="fill:#3c89bf" />
      <path
         id="path3445"
         d="m 28.3,47 c 0.6,2.1 -2.1,1.8 -3.1,8.3 -0.4,2.4 -9,-3.5 -5.5,-7.8 2.8,-3.6 8,-2.6 8.6,-0.5 z"
         inkscape:connector-curvature="0"
         style="fill:#3c89bf" />
    </g>
  </g>
  <g
     inkscape:groupmode="layer"
     id="layer2"
     inkscape:label="Layer 2">
    <g
       id="g3384"
       transform="matrix(0.32790698,0,0,0.32790698,97.989536,117.22674)">
      <path
         id="path3338"
         d="m 1.25,1.25 256,0 0,256 -256,0 z"
         inkscape:connector-curvature="0"
         style="fill:#cd9945;stroke:#6e441b;stroke-width:2.5" />
      <path
         id="path3340"
         d="m 33.25,33.25 192,0 0,192 -192,0 z"
         inkscape:connector-curvature="0"
         style="fill:#9a6926" />
      <path
         id="path3342"
         transform="matrix(0,-1,1,0,0,0)"
         d="m -225.25,33.25 6,0 0,192 -6,0 z"
         inkscape:connector-curvature="0"
         style="fill:#976825;stroke:#6e441b;stroke-width:2.5" />
      <path
         id="path3344"
         transform="matrix(0.70711,-0.70711,0.70711,0.70711,0,0)"
         d="m -136.4201,203.8853 271.53,0 0,6 -271.53,0 z"
         inkscape:connector-curvature="0"
         style="opacity:0.75;fill:#6e441b" />
      <path
         id="path3346"
         d="m 33.4823,71.65 191.2738,0"
         inkscape:connector-curvature="0"
         style="fill:none;stroke:#6e441b;stroke-width:2.5" />
      <path
         id="path3348"
         d="m 33.25,110.05 191.2738,0"
         inkscape:connector-curvature="0"
         style="fill:none;stroke:#70461c;stroke-width:2.5" />
      <path
         id="path3350"
         d="m 33.25,148.45 191.2738,0"
         inkscape:connector-curvature="0"
         style="fill:none;stroke:#6e441b;stroke-width:2.5" />
      <path
         id="path3352"
         d="m 33.25,186.85 191.2738,0"
         inkscape:connector-curvature="0"
         style="fill:none;stroke:#6e441b;stroke-width:2.5" />
      <path
         id="path3354"
         transform="matrix(0.70711,-0.70711,0.70711,0.70711,0,0)"
         d="m 18.2938,47.0229 6,0 0,271.53 -6,0 z"
         inkscape:connector-curvature="0"
         style="fill:#976825;stroke:#6e441b;stroke-width:2.5" />
      <path
         id="path3356"
         d="m 32,34 192,0 0,6 -192,0 z"
         inkscape:connector-curvature="0"
         style="opacity:0.75;fill:#6e441b" />
      <path
         id="path3358"
         d="m 33.25,33.25 6,0 0,192 -6,0 z"
         inkscape:connector-curvature="0"
         style="fill:#976825;stroke:#70461c;stroke-width:2.5" />
      <path
         id="path3360"
         transform="matrix(0.70710678,0.70710678,-0.70710678,0.70710678,0,0)"
         d="m 45.7324,22.9842 271.53,0 0,6 -271.53,0 z"
         inkscape:connector-curvature="0"
         style="opacity:0.75;fill:#6e441b" />
      <path
         id="path3362"
         d="m 40.5,34.5 6,0 0,192 -6,0 z"
         inkscape:connector-curvature="0"
         style="opacity:0.75;fill:#6f451b" />
      <path
         id="path3364"
         transform="matrix(0.70711,-0.70711,0.70711,0.70711,0,0)"
         d="m -21.7784,47.0221 40,0 0,271.53 -40,0 z"
         inkscape:connector-curvature="0"
         style="fill:#cd9945;stroke:#6e441b;stroke-width:2.5" />
      <path
         id="path3366"
         transform="matrix(0.70710678,0.70710678,-0.70710678,0.70710678,0,0)"
         d="m 162.7871,-134.6081 40,0 0,273 -40,0 z"
         inkscape:connector-curvature="0"
         style="fill:#cd9945;stroke:#6e441b;stroke-width:2.5" />
      <path
         id="path3368"
         d="m 11.9691,3.2876 240.1544,0 0,29.3436 -240.1544,0 z"
         inkscape:connector-curvature="0"
         style="fill:#cd9945" />
      <path
         id="path3370"
         d="m 14.9158,225.6797 240.1544,0 0,29.3436 -240.1544,0 z"
         inkscape:connector-curvature="0"
         style="fill:#cd9945" />
      <path
         id="path3372"
         transform="matrix(0,1,-1,0,0,0)"
         d="m 6.7625,-32.4324 240.1544,0 0,29.3436 -240.1544,0 z"
         inkscape:connector-curvature="0"
         style="fill:#cd9945" />
      <path
         id="path3374"
         transform="matrix(0,1,-1,0,0,0)"
         d="m 12.4013,-254.6841 240.1544,0 0,29.3436 -240.1544,0 z"
         inkscape:connector-curvature="0"
         style="fill:#cd9945" />
      <path
         id="path3376"
         d="m 33.25,33.25 192,0 0,192 -192,0 z"
         inkscape:connector-curvature="0"
         style="fill:none;stroke:#6e441b;stroke-width:2.5" />
    </g>
  </g>
  <g
     inkscape:groupmode="layer"
     id="layer3"
     inkscape:label="HAR" />
</svg>
